<?xml version="1.0" encoding="UTF-8"?>
<!DOCTYPE svg PUBLIC "-//W3C//DTD SVG 1.1//EN" "http://www.w3.org/Graphics/SVG/1.1/DTD/svg11.dtd">
<!-- Creator: CorelDRAW -->
<svg xmlns="http://www.w3.org/2000/svg" xml:space="preserve" width="900px" height="900px" shape-rendering="geometricPrecision" text-rendering="geometricPrecision" image-rendering="optimizeQuality" fill-rule="evenodd" clip-rule="evenodd"
viewBox="0 0 1786.51 1608.69"
 xmlns:xlink="http://www.w3.org/1999/xlink">
 <g id="Warstwa_x0020_1">
  <metadata id="CorelCorpID_0Corel-Layer"/>
  <g id="_169436136">
   <path id="_191548136" fill="#1F1A17" fill-rule="nonzero" d="M392.703 1234.7l0 14.0327c0,23.2608 -19.0461,42.0958 -42.0982,42.0958l-126.285 0 0 42.0958 -28.0655 0 0 -140.32 154.351 0c23.0521,0 42.0982,18.8566 42.0982,42.0958zm-28.0751 0c0,-7.62326 -6.41908,-14.0207 -14.0231,-14.0207l-126.285 0 0 42.0958 126.285 0c7.60407,0 14.0231,-6.21998 14.0231,-14.0423l0 -14.0327z"/>
   <path id="_191548232" fill="#1F1A17" fill-rule="nonzero" d="M644.573 1290.83l0 -98.222 28.0487 0 0 98.222c0,7.62326 6.21998,13.8193 13.8456,13.8193l95.4874 0 0 28.2742 -95.4874 0c-23.0593,0 -41.8943,-19.0437 -41.8943,-42.0934z"/>
   <polygon id="_191548256" fill="#1F1A17" fill-rule="nonzero" points="796.27,1276.65 908.201,1276.65 908.201,1248.9 796.27,1248.9 "/>
   <path id="_191547728" fill="#1F1A17" fill-rule="nonzero" d="M988.346 1192.61l154.348 0 0 28.0751 -154.348 0c-7.81516,0 -14.0231,6.39509 -14.0231,14.0183l0 14.0351 168.371 0 0 28.0511 -168.371 0 0 14.0423c0,7.62565 6.20799,13.824 14.0231,13.824l154.348 0 0 28.2742 -154.348 0c-23.2416,0 -42.2829,-19.0557 -42.2829,-42.0982l0 -56.1286c0,-23.2488 19.0413,-42.0934 42.2829,-42.0934z"/>
   <polygon id="_169436064" fill="#1F1A17" fill-rule="nonzero" points="1383.71,1332.93 1336.8,1332.93 1260.03,1275.39 1212.13,1309.08 1212.13,1332.93 1184.27,1332.93 1184.27,1192.61 1212.13,1192.61 1212.13,1274.78 1329.4,1192.61 1378.1,1192.61 1284.08,1258.56 "/>
   <path id="_169435896" fill="#1F1A17" fill-rule="nonzero" d="M1548.18 1332.93l-112.046 0c-23.2584,0 -42.0934,-19.0437 -42.0934,-42.0934l0 -56.1286c0,-23.2392 18.8351,-42.0958 42.0934,-42.0958l112.046 0c23.4503,0 42.0982,18.8566 42.0982,42.0958l0 56.1286c0,23.0497 -18.648,42.0934 -42.0982,42.0934zm-112.046 -28.2622l112.046 0c8.03344,0 14.2318,-6.21039 14.2318,-13.8312l0 -56.1286c0,-7.62565 -6.19839,-14.0231 -14.2318,-14.0231l-112.046 0c-7.81036,0 -14.0303,6.39749 -14.0303,14.0231l0 56.1286c0,7.62086 6.21998,13.8312 14.0303,13.8312z"/>
   <path id="_169436040" fill="#1F1A17" fill-rule="nonzero" d="M570.202 1332.93l-112.041 0c-23.2632,0 -42.0982,-19.0437 -42.0982,-42.0934l0 -56.1286c0,-23.2392 18.8351,-42.0958 42.0982,-42.0958l112.041 0c23.4527,0 42.0982,18.8566 42.0982,42.0958l0 56.1286c0,23.0497 -18.6456,42.0934 -42.0982,42.0934zm-112.041 -28.2622l112.041 0c8.03584,0 14.2342,-6.21039 14.2342,-13.8312l0 -56.1286c0,-7.62565 -6.19839,-14.0231 -14.2342,-14.0231l-112.041 0c-7.82475,0 -14.0447,6.39749 -14.0447,14.0231l0 56.1286c0,7.62086 6.21998,13.8312 14.0447,13.8312z"/>
   <path id="_169435824" fill="none" fill-rule="nonzero" d="M1784 1605.96l-1781.5 0 0 -1603.22 1781.5 0 0 1603.22zm0 -1603.22zm2.5067 -2.73698l-1786.51 0 0 1608.7 1786.51 0 0 -1608.7z"/>
   <polygon id="_169435920" fill="#007CC3" points="457.894,534.599 457.894,369.135 638.787,264.689 1068.69,512.898 1140.22,471.596 709.229,222.761 852.641,139.96 1247.81,368.114 1247.26,575.263 1069.83,677.705 638.787,430.162 "/>
   <polygon id="_169435800" fill="#007CC3" points="638.792,512.898 457.894,617.34 457.774,824.6 851.543,1051.94 1247.27,823.456 1247.08,658.107 851.538,886.471 779.875,845.114 997.042,719.736 853.74,636.998 636.59,762.371 564.939,721 782.089,595.626 "/>
   <path id="_169436424" fill="#1F1A17" fill-rule="nonzero" d="M268.136 1405.5l-71.8764 0 0 65.3422 13.0684 0 0 -19.6027 58.808 0c2.7058,-0.0143926 5.24369,-0.527727 7.59207,-1.54 2.36518,-1.00988 4.43531,-2.41075 6.23677,-4.20023 1.78947,-1.78947 3.20714,-3.874 4.21702,-6.23917 1.02667,-2.34839 1.5424,-4.90066 1.55679,-7.62326l0 -6.53422c-0.0143926,-2.72019 -0.530126,-5.27247 -1.55679,-7.63765 -1.00988,-2.34839 -2.42754,-4.43291 -4.21702,-6.22238 -1.80147,-1.78947 -3.8716,-3.19035 -6.23677,-4.20023 -2.34839,-1.01228 -4.88627,-1.52561 -7.59207,-1.5424zm6.53422 26.1369c-0.0167913,1.23056 -0.311839,2.33399 -0.901933,3.31508 -0.592493,0.981092 -1.36969,1.75829 -2.36518,2.33399 -0.981092,0.573303 -2.07013,0.87075 -3.26711,0.885142l-58.808 0 0 -19.6027 58.808 0c1.19698,0.0167913 2.28602,0.311839 3.26711,0.904332 0.995485,0.590095 1.77268,1.36729 2.36518,2.36278 0.590095,0.981092 0.885142,2.07013 0.901933,3.26711l0 6.53422zm42.0047 39.2053l45.7395 0 0 -12.9749 -45.7395 0c-1.19698,-0.0143926 -2.27162,-0.311839 -3.25272,-0.901933 -0.964301,-0.590095 -1.72711,-1.38408 -2.30281,-2.36518 -0.575702,-0.978694 -0.87075,-2.07013 -0.885142,-3.26711l52.1802 0 0 -13.162 -52.1802 0c0.0143926,-1.19698 0.30944,-2.27162 0.885142,-3.25032 0.575702,-0.9667 1.33851,-1.7439 2.30281,-2.30281 0.981092,-0.575702 2.05574,-0.87075 3.25272,-0.887541l45.7395 0 0 -13.0684 -45.7395 0c-2.7058,0.0167913 -5.2269,0.530126 -7.59207,1.54 -2.36518,1.01228 -4.43531,2.39636 -6.23917,4.18583 -1.78947,1.78947 -3.20474,3.8596 -4.21462,6.20799 -1.01228,2.34839 -1.5424,4.86948 -1.55679,7.57528l0 13.162c0.0143926,2.72259 0.544518,5.25808 1.55679,7.62326 1.00988,2.34839 2.42515,4.41851 4.21462,6.1912 1.80387,1.77508 3.874,3.17356 6.23917,4.16904 2.36518,0.995485 4.88627,1.51122 7.59207,1.52561zm55.0731 -32.6711l0 32.6711 13.0684 0 0 -32.6711c0.0143926,-1.19698 0.311839,-2.28602 0.887541,-3.25032 0.575702,-0.9667 1.33611,-1.7439 2.30041,-2.30281 0.981092,-0.575702 2.05574,-0.87075 3.25272,-0.887541l45.8331 0 0 -13.0684 -45.8331 0c-2.7058,0.0167913 -5.2269,0.530126 -7.57768,1.54 -2.34839,1.01228 -4.41612,2.39636 -6.20559,4.18583 -1.77508,1.78947 -3.17356,3.8596 -4.18583,6.20799 -1.00988,2.34839 -1.52321,4.86948 -1.54,7.57528zm87.8378 32.6711l0 -19.5091 52.1802 0 0 -13.162 -52.1802 0c0.0143926,-1.19698 0.311839,-2.27162 0.887541,-3.25032 0.573303,-0.9667 1.33851,-1.7439 2.30281,-2.30281 0.978694,-0.575702 2.05334,-0.87075 3.25032,-0.887541l45.7395 0 0 -13.0684 -45.7395 0c-2.7058,0.0167913 -5.2269,0.530126 -7.59207,1.54 -2.36518,1.01228 -4.43291,2.39636 -6.23917,4.18583 -1.78947,1.78947 -3.20474,3.8596 -4.21462,6.20799 -1.01228,2.34839 -1.54,4.86948 -1.55679,7.57528l0 32.6711 13.162 0zm81.1164 0l45.7395 0 0 -12.9749 -45.7395 0c-1.19698,-0.0143926 -2.27162,-0.311839 -3.25032,-0.901933 -0.964301,-0.590095 -1.72711,-1.38408 -2.30281,-2.36518 -0.575702,-0.978694 -0.87075,-2.07013 -0.887541,-3.26711l52.1802 0 0 -13.162 -52.1802 0c0.0167913,-1.19698 0.311839,-2.27162 0.887541,-3.25032 0.575702,-0.9667 1.33851,-1.7439 2.30281,-2.30281 0.978694,-0.575702 2.05334,-0.87075 3.25032,-0.887541l45.7395 0 0 -13.0684 -45.7395 0c-2.7058,0.0167913 -5.2269,0.530126 -7.59207,1.54 -2.36518,1.01228 -4.43291,2.39636 -6.23917,4.18583 -1.78947,1.78947 -3.20474,3.8596 -4.21462,6.20799 -1.01228,2.34839 -1.54,4.86948 -1.55679,7.57528l0 13.162c0.0167913,2.72259 0.544518,5.25808 1.55679,7.62326 1.00988,2.34839 2.42515,4.41851 4.21462,6.1912 1.80627,1.77508 3.874,3.17356 6.23917,4.16904 2.36518,0.995485 4.88627,1.51122 7.59207,1.52561zm74.6758 -39.1118l45.7395 0 0 -13.0684 -45.7395 0c-2.7058,0.0167913 -5.2269,0.530126 -7.59207,1.54 -2.36278,1.01228 -4.43291,2.39636 -6.23917,4.18583 -1.78708,1.78947 -3.20474,3.8596 -4.21462,6.20799 -1.01228,2.34839 -1.54,4.86948 -1.55679,7.57528l0 13.162c0.0167913,2.72259 0.544518,5.25808 1.55679,7.62326 1.00988,2.34839 2.42754,4.41851 4.21462,6.1912 1.80627,1.77508 3.87639,3.17356 6.23917,4.16904 2.36518,0.995485 4.88627,1.51122 7.59207,1.52561l45.7395 0 0 -12.9749 -45.7395 0c-1.19698,-0.0143926 -2.27162,-0.311839 -3.25032,-0.901933 -0.964301,-0.590095 -1.72711,-1.38408 -2.30281,-2.36518 -0.575702,-0.978694 -0.87075,-2.07013 -0.887541,-3.26711l0 -13.162c0.0167913,-1.19698 0.311839,-2.28602 0.887541,-3.25032 0.575702,-0.9667 1.33851,-1.7439 2.30281,-2.30281 0.978694,-0.575702 2.05334,-0.87075 3.25032,-0.887541zm87.7442 -26.2304l-13.162 0 0 13.162 -19.5067 0 0 13.0684 19.5067 0 0 19.6027c0.0167913,2.72259 0.544518,5.25808 1.55679,7.62326 1.01228,2.34839 2.42754,4.41851 4.23141,6.1912 1.80627,1.77508 3.89079,3.17356 6.27036,4.16904 2.36278,0.995485 4.91506,1.51122 7.63765,1.52561l26.1369 0 0 -12.9749 -26.1369 0c-1.22816,-0.0143926 -2.33399,-0.311839 -3.31269,-0.901933 -0.981092,-0.590095 -1.75829,-1.38408 -2.33399,-2.36518 -0.575702,-0.978694 -0.87075,-2.07013 -0.887541,-3.26711l0 -19.6027 32.6711 0 0 -13.0684 -32.6711 0 0 -13.162zm93.3453 19.6027l0 26.1369c0.0167913,2.7082 0.544518,5.2269 1.55679,7.59207 1.00988,2.36518 2.42515,4.43531 4.23141,6.23917 1.80387,1.78947 3.88839,3.20474 6.27036,4.21702 2.36278,1.00988 4.91506,1.54 7.63765,1.5544l71.874 0 0 -13.162 -71.874 0c-1.22816,-0.0143926 -2.33399,-0.30944 -3.31269,-0.885142 -0.981092,-0.575702 -1.76069,-1.33851 -2.33399,-2.30281 -0.575702,-0.981092 -0.873148,-2.05574 -0.887541,-3.25272l0 -6.53422 78.4082 0 0 -13.0684 -78.4082 0 0 -6.53422c0.0143926,-1.19698 0.311839,-2.28602 0.887541,-3.26711 0.573303,-0.995485 1.3529,-1.77268 2.33399,-2.36278 0.978694,-0.592493 2.08452,-0.887541 3.31269,-0.904332l71.874 0 0 -13.0684 -71.874 0c-2.72259,0.0167913 -5.27487,0.530126 -7.63765,1.5424 -2.38197,1.00988 -4.46649,2.41075 -6.27036,4.20023 -1.80627,1.78947 -3.22153,3.874 -4.23141,6.22238 -1.01228,2.36518 -1.54,4.91746 -1.55679,7.63765zm113.881 6.62777l32.6711 0c1.22816,0.0167913 2.33399,0.311839 3.31269,0.887541 0.981092,0.558911 1.75829,1.33611 2.33399,2.30281 0.575702,0.964301 0.87075,2.05334 0.887541,3.25032l0 32.6711 13.1596 0 0 -32.6711c-0.0143926,-2.7058 -0.527727,-5.2269 -1.5544,-7.57528 -1.00988,-2.34839 -2.42754,-4.41851 -4.23141,-6.20799 -1.80387,-1.78947 -3.88839,-3.17356 -6.25356,-4.18583 -2.38197,-1.00988 -4.93185,-1.52321 -7.65444,-1.54l-45.646 0 0 52.1802 12.9749 0 0 -39.1118zm128.254 -13.0684l-15.2129 0 -22.7762 38.3658 -22.7786 -38.3658 -15.1218 0 30.8984 52.1802 14.0016 0 30.9896 -52.1802zm17.83 -0.184704l-13.162 0 0 52.3649 13.162 0 0 -52.3649zm9.33357 19.6938l0 32.6711 13.0684 0 0 -32.6711c0.0167913,-1.19698 0.311839,-2.28602 0.887541,-3.25032 0.575702,-0.9667 1.33851,-1.7439 2.30281,-2.30281 0.978694,-0.575702 2.05334,-0.87075 3.25032,-0.887541l45.8331 0 0 -13.0684 -45.8331 0c-2.7058,0.0167913 -5.2269,0.530126 -7.57528,1.54 -2.35078,1.01228 -4.41851,2.39636 -6.20799,4.18583 -1.77268,1.78947 -3.17356,3.8596 -4.18344,6.20799 -1.01228,2.34839 -1.52561,4.86948 -1.5424,7.57528zm118.549 -19.5091l-26.1369 0c-2.72019,0.0167913 -5.27247,0.530126 -7.62086,1.54 -2.36518,1.01228 -4.4497,2.39636 -6.23917,4.18583 -1.78947,1.78947 -3.19035,3.8596 -4.20023,6.20799 -1.01228,2.34839 -1.52561,4.86948 -1.5424,7.57528l0 13.162c0.0167913,2.72259 0.530126,5.25808 1.5424,7.62326 1.00988,2.34839 2.41075,4.41851 4.20023,6.1912 1.78947,1.77508 3.874,3.17356 6.23917,4.16904 2.34839,0.995485 4.90066,1.51122 7.62086,1.52561l26.1369 0c2.72259,-0.0143926 5.27487,-0.530126 7.63765,-1.52561 2.35078,-0.995485 4.43531,-2.39396 6.22478,-4.16904 1.78947,-1.77268 3.19035,-3.84281 4.20023,-6.1912 1.00988,-2.36518 1.52561,-4.90066 1.54,-7.62326l0 -13.162c-0.0143926,-2.7058 -0.530126,-5.2269 -1.54,-7.57528 -1.00988,-2.34839 -2.41075,-4.41851 -4.20023,-6.20799 -1.78947,-1.78947 -3.874,-3.17356 -6.22478,-4.18583 -2.36278,-1.00988 -4.91506,-1.52321 -7.63765,-1.54zm6.53422 19.5091l0 13.162c-0.0167913,1.19698 -0.311839,2.28842 -0.901933,3.26711 -0.590095,0.981092 -1.36969,1.77508 -2.36518,2.36518 -0.981092,0.590095 -2.07013,0.887541 -3.26711,0.901933l-26.1369 0c-1.22816,-0.0143926 -2.33399,-0.311839 -3.31269,-0.901933 -0.981092,-0.590095 -1.75829,-1.38408 -2.33399,-2.36518 -0.575702,-0.978694 -0.87075,-2.07013 -0.887541,-3.26711l0 -13.162c0.0167913,-1.19698 0.311839,-2.28602 0.887541,-3.25032 0.575702,-0.9667 1.3529,-1.7439 2.33399,-2.30281 0.978694,-0.575702 2.08452,-0.87075 3.31269,-0.887541l26.1369 0c1.19698,0.0167913 2.28602,0.311839 3.26711,0.887541 0.995485,0.558911 1.77508,1.33611 2.36518,2.30281 0.590095,0.964301 0.885142,2.05334 0.901933,3.25032zm35.3793 -6.44067l32.6687 0c1.23056,0.0167913 2.33399,0.311839 3.31508,0.887541 0.978694,0.558911 1.75589,1.33611 2.33399,2.30281 0.575702,0.964301 0.87075,2.05334 0.885142,3.25032l0 32.6711 13.162 0 0 -32.6711c-0.0143926,-2.7058 -0.527727,-5.2269 -1.5544,-7.57528 -1.01228,-2.34839 -2.42754,-4.41851 -4.23141,-6.20799 -1.80627,-1.78947 -3.89079,-3.17356 -6.25596,-4.18583 -2.37957,-1.00988 -4.93185,-1.52321 -7.65444,-1.54l-45.6436 0 0 52.1802 12.9749 0 0 -39.1118zm107.344 39.1118l0 -39.1118 13.0708 0c1.22816,0.0167913 2.33159,0.311839 3.31269,0.887541 0.978694,0.558911 1.75829,1.33611 2.33399,2.30281 0.575702,0.964301 0.87075,2.05334 0.885142,3.25032l0 32.6711 13.0684 0 0 -32.6711c-0.0143926,-2.7058 -0.527727,-5.2269 -1.52321,-7.57528 -0.995485,-2.34839 -2.39636,-4.41851 -4.18583,-6.20799 -1.77268,-1.78947 -3.8596,-3.17356 -6.22238,-4.18583 -2.36518,-1.00988 -4.91746,-1.52321 -7.66883,-1.54l-58.7144 0 0 52.1802 12.9749 0 0 -39.1118 19.6938 0 0 39.1118 12.9749 0zm61.6073 0l45.7395 0 0 -12.9749 -45.7395 0c-1.19698,-0.0143926 -2.27162,-0.311839 -3.25032,-0.901933 -0.964301,-0.590095 -1.72711,-1.38408 -2.30281,-2.36518 -0.575702,-0.978694 -0.87075,-2.07013 -0.887541,-3.26711l52.1802 0 0 -13.162 -52.1802 0c0.0167913,-1.19698 0.311839,-2.27162 0.887541,-3.25032 0.575702,-0.9667 1.33851,-1.7439 2.30281,-2.30281 0.978694,-0.575702 2.05334,-0.87075 3.25032,-0.887541l45.7395 0 0 -13.0684 -45.7395 0c-2.7058,0.0167913 -5.2269,0.530126 -7.59207,1.54 -2.36278,1.01228 -4.43291,2.39636 -6.23917,4.18583 -1.78708,1.78947 -3.20474,3.8596 -4.21462,6.20799 -1.01228,2.34839 -1.54,4.86948 -1.55679,7.57528l0 13.162c0.0167913,2.72259 0.544518,5.25808 1.55679,7.62326 1.00988,2.34839 2.42754,4.41851 4.21462,6.1912 1.80627,1.77508 3.87639,3.17356 6.23917,4.16904 2.36518,0.995485 4.88627,1.51122 7.59207,1.52561zm68.0504 -39.1118l32.6687 0c1.23056,0.0167913 2.33399,0.311839 3.31508,0.887541 0.978694,0.558911 1.75589,1.33611 2.33399,2.30281 0.575702,0.964301 0.87075,2.05334 0.885142,3.25032l0 32.6711 13.162 0 0 -32.6711c-0.0143926,-2.7058 -0.527727,-5.2269 -1.5544,-7.57528 -1.01228,-2.34839 -2.42754,-4.41851 -4.23141,-6.20799 -1.80627,-1.78947 -3.89079,-3.17356 -6.25596,-4.18583 -2.37957,-1.00988 -4.93185,-1.52321 -7.65444,-1.54l-45.6436 0 0 52.1802 12.9749 0 0 -39.1118zm94.3696 -26.2304l-13.162 0 0 13.162 -19.5067 0 0 13.0684 19.5067 0 0 19.6027c0.0167913,2.72259 0.544518,5.25808 1.55679,7.62326 1.01228,2.34839 2.42754,4.41851 4.23141,6.1912 1.80627,1.77508 3.89079,3.17356 6.27036,4.16904 2.36518,0.995485 4.91746,1.51122 7.63765,1.52561l26.1369 0 0 -12.9749 -26.1369 0c-1.22816,-0.0143926 -2.33399,-0.311839 -3.31269,-0.901933 -0.981092,-0.590095 -1.75829,-1.38408 -2.33399,-2.36518 -0.575702,-0.978694 -0.87075,-2.07013 -0.887541,-3.26711l0 -19.6027 32.6711 0 0 -13.0684 -32.6711 0 0 -13.162z"/>
  </g>
 </g>
</svg>
